#!OML:ASF E:\Steps\Project 1\Capture day 1\Session 2\Subject.ASF
:FULLY-SPECIFIED
:DEGREES
237
root 16.963 16.3334 19.9518 -164.286 -4.26071 171.065
lowerback -22.6003 -2.34275 -8.31339
upperback 2.72125 -0.701723 -1.28679
thorax 16.1074 -1.03777 2.98625
lowerneck -3.69143 2.80017 -1.38903
upperneck 16.3014 2.91264 1.93935
head 5.45986 1.16917 0.974306
rclavicle -1.22253e-014 -1.23246e-014
rhumerus -34.9947 -19.1008 -76.088
rradius 29.9113
rwrist -0.648519
rhand -10.4199 -411.376
rfingers 7.12502
rthumb 15.5793 279.232
lclavicle -1.22253e-014 -1.23246e-014
lhumerus -30.5391 7.7619 79.0256
lradius 18.6222
lwrist -8.52737
lhand -20.9043 -12.713
lfingers 7.12502
lthumb 5.46678 17.1965
rfemur -12.0809 9.60183 17.0251
rtibia 15.6486
rfoot -25.1369 -7.83533
rtoes -20.5382
lfemur -79.0376 -0.990771 -26.3525
ltibia 82.3023
lfoot -7.61822 -1.11587
ltoes -32.4239
238
root 16.9548 16.3289 19.9087 -164.368 -4.21134 170.884
lowerback -22.8637 -2.40515 -8.45903
upperback 2.73303 -0.719992 -1.25671
thorax 16.2863 -1.06779 3.09267
lowerneck -3.6658 2.77704 -1.33256
upperneck 16.4974 2.88748 1.70981
head 5.52189 1.13516 0.892728
rclavicle -3.47873e-015 -2.0276e-014
rhumerus -35.0057 -19.1795 -75.8871
rradius 29.8346
rwrist -0.544783
rhand -9.87605 -409.842
rfingers 7.12502
rthumb 16.103 280.807
lclavicle -3.47873e-015 -2.0276e-014
lhumerus -30.5601 8.16774 78.9326
lradius 18.5599
lwrist -8.78027
lhand -20.9872 -12.6053
lfingers 7.12502
lthumb 5.38671 17.3063
rfemur -11.8354 9.66789 16.8407
rtibia 15.7132
rfoot -25.3474 -7.94907
rtoes -21.0248
lfemur -79.0303 -0.918288 -26.1092
ltibia 80.7078
lfoot -7.37184 -0.85035
ltoes -33.4016
239
root 16.9426 16.3246 19.864 -164.475 -4.05675 170.659
lowerback -23.002 -2.40097 -8.57124
upperback 2.68281 -0.670108 -1.30088
thorax 16.3026 -1.05516 3.12127
lowerneck -3.63678 2.72581 -1.23591
upperneck 16.6098 2.80337 1.6389
head 5.55603 1.08861 0.849961
rclavicle -9.93923e-015 4.01545e-014
rhumerus -35.2224 -19.2075 -75.76
rradius 29.8604
rwrist -0.370326
rhand -9.75375 -406.397
rfingers 7.12502
rthumb 16.2208 284.262
lclavicle -9.93923e-015 4.01545e-014
lhumerus -30.7041 8.35585 78.7879
lradius 18.5982
lwrist -8.92528
lhand -21.1955 -12.4339
lfingers 7.12502
lthumb 5.18559 17.4826
rfemur -11.6186 9.68289 16.5625
rtibia 15.8772
rfoot -25.5944 -7.9136
rtoes -20.9803
lfemur -78.8853 -0.79641 -25.9136
ltibia 78.9212
lfoot -7.01404 -0.559187
ltoes -32.1271
240
root 16.9331 16.3097 19.8321 -164.591 -4.18391 170.749
lowerback -22.7866 -2.3827 -8.36688
upperback 2.51369 -0.744476 -1.26845
thorax 15.9695 -1.05662 3.02389
lowerneck -3.52673 2.70206 -1.15889
upperneck 16.8134 2.71977 1.70602
head 5.602 1.04376 0.852716
rclavicle -6.60959e-015 -1.59028e-014
rhumerus -35.5437 -19.2658 -75.6631
rradius 29.9066
rwrist -0.062793
rhand -10.4069 -412.857
rfingers 7.12502
rthumb 15.5918 277.752
lclavicle -6.60959e-015 -1.59028e-014
lhumerus -31.027 7.92414 78.7545
lradius 18.7694
lwrist -8.47444
lhand -21.0298 -12.8293
lfingers 7.12502
lthumb 5.34553 17.0833
rfemur -11.464 9.57698 16.7511
rtibia 16.1939
rfoot -25.9213 -7.82702
rtoes -20.896
lfemur -78.9414 -0.810194 -25.3762
ltibia 77.5064
lfoot -6.77438 -0.462053
ltoes -31.5476
241
root 16.9174 16.3019 19.7873 -164.773 -4.0977 170.627
lowerback -22.9309 -2.3719 -8.44216
upperback 2.53702 -0.695631 -1.23112
thorax 16.0806 -1.04792 3.12551
lowerneck -3.47382 2.61387 -1.04383
upperneck 17.0957 2.58017 1.51734
head 5.68791 0.954744 0.767042
rclavicle 2.98177e-016 5.24792e-014
rhumerus -35.5627 -19.3351 -75.5164
rradius 30.0186
rwrist 0.023041
rhand -10.0346 -410.825
rfingers 7.12502
rthumb 15.9503 279.812
lclavicle 2.98177e-016 5.24792e-014
lhumerus -31.2184 7.40578 78.9827
lradius 19.0561
lwrist -7.73987
lhand -20.7102 -13.0799
lfingers 7.12502
lthumb 5.65412 16.8247
rfemur -11.1576 9.6568 16.6097
rtibia 16.3392
rfoot -26.2042 -7.75353
rtoes -20.637
lfemur -78.7314 -0.782713 -25.0968
ltibia 75.9737
lfoot -6.65396 -0.390917
ltoes -32.3449
242
root 16.9042 16.2966 19.7424 -164.833 -4.05494 170.536
lowerback -23.2179 -2.39567 -8.44932
upperback 2.58374 -0.692095 -1.22187
thorax 16.3092 -1.05626 3.13612
lowerneck -3.49298 2.59695 -0.835832
upperneck 17.3732 2.5608 1.17844
head 5.78676 0.922118 0.626421
rclavicle 4.17448e-015 -3.97569e-015
rhumerus -35.4801 -19.3951 -75.5289
rradius 30.197
rwrist -0.129991
rhand -9.86808 -410.793
rfingers 7.12502
rthumb 16.1107 279.856
lclavicle 4.17448e-015 -3.97569e-015
lhumerus -31.292 7.3668 79.0071
lradius 19.2669
lwrist -7.54818
lhand -20.797 -12.8482
lfingers 7.12502
lthumb 5.5703 17.0586
rfemur -10.911 9.70609 16.4995
rtibia 16.3294
rfoot -26.3614 -7.93523
rtoes -20.9821
lfemur -78.6394 -0.708824 -24.7652
ltibia 74.432
lfoot -6.4505 -0.397648
ltoes -30.9272
243
root 16.8964 16.2898 19.6992 -164.951 -4.20738 170.39
lowerback -23.3226 -2.51024 -8.57624
upperback 2.62454 -0.797741 -1.18995
thorax 16.4401 -1.12147 3.20352
lowerneck -3.53104 2.63789 -0.818532
upperneck 17.421 2.63174 1.06638
head 5.8096 0.948772 0.593267
rclavicle 3.37934e-015 7.95139e-016
rhumerus -35.4488 -19.342 -75.5617
rradius 30.4059
rwrist -0.194621
rhand -9.58826 -412.606
rfingers 7.12502
rthumb 16.3801 278.066
lclavicle 3.37934e-015 7.95139e-016
lhumerus -31.2436 7.66211 78.9163
lradius 19.2735
lwrist -7.77371
lhand -21.056 -12.5831
lfingers 7.12502
lthumb 5.32025 17.3302
rfemur -10.4647 9.52669 16.4299
rtibia 16.2357
rfoot -26.4596 -8.33065
rtoes -22.4412
lfemur -78.4447 -0.805594 -24.4611
ltibia 72.8494
lfoot -6.22912 -0.410772
ltoes -28.8956
244
root 16.8838 16.2808 19.649 -165.138 -4.08315 170.239
lowerback -23.4304 -2.51518 -8.66661
upperback 2.61934 -0.770495 -1.16677
thorax 16.4974 -1.12155 3.29071
lowerneck -3.47045 2.70806 -1.00559
upperneck 17.3276 2.72564 1.23448
head 5.76322 0.99724 0.681338
rclavicle 3.77691e-015 4.25399e-014
rhumerus -35.642 -19.1489 -75.4928
rradius 30.6448
rwrist -0.217925
rhand -9.26014 -413.832
rfingers 7.12502
rthumb 16.696 276.866
lclavicle 3.77691e-015 4.25399e-014
lhumerus -31.3717 7.60246 78.9879
lradius 19.3849
lwrist -7.58491
lhand -21.266 -12.4236
lfingers 7.12502
lthumb 5.11748 17.4946
rfemur -10.064 9.50193 16.2886
rtibia 16.307
rfoot -26.6029 -8.38172
rtoes -23.1778
lfemur -78.1127 -0.701133 -24.1992
ltibia 71.1641
lfoot -6.06165 -0.119092
ltoes -29.4062
245
root 16.8725 16.271 19.612 -165.294 -4.01554 170.342
lowerback -23.3495 -2.48954 -8.5227
upperback 2.55508 -0.801673 -1.06598
thorax 16.3711 -1.12071 3.31954
lowerneck -3.37751 2.81397 -1.235
upperneck 17.2373 2.87068 1.39656
head 5.71058 1.06651 0.776743
rclavicle 1.05356e-014 1.31198e-014
rhumerus -35.807 -18.8654 -75.4519
rradius 30.7878
rwrist -0.421811
rhand -9.42996 -413.433
rfingers 7.12502
rthumb 16.5325 277.251
lclavicle 1.05356e-014 1.31198e-014
lhumerus -31.5509 7.3212 79.1251
lradius 19.5403
lwrist -7.13709
lhand -21.363 -12.6133
lfingers 7.12502
lthumb 5.0239 17.3072
rfemur -9.9812 9.5724 16.4315
rtibia 16.7362
rfoot -26.9209 -8.26696
rtoes -22.8906
lfemur -77.9641 -0.482376 -23.7141
ltibia 69.7005
lfoot -5.79952 0.189595
ltoes -30.7747
